<?xml version="1.0" encoding="utf-8"?>
<!-- Generator: Adobe Illustrator 22.1.0, SVG Export Plug-In . SVG Version: 6.00 Build 0)  -->
<svg version="1.1" xmlns="http://www.w3.org/2000/svg" xmlns:xlink="http://www.w3.org/1999/xlink" x="0px" y="0px"
	 viewBox="0 0 1366 768" style="enable-background:new 0 0 1366 768;" xml:space="preserve">
<style type="text/css">
	.st0{fill:#FFFFFF;stroke:#000000;stroke-width:3;stroke-miterlimit:10;}
	.st1{fill:none;}
</style>
<g id="レイヤー_1">
	<path class="st0" d="M345.5,225.5c-22.9,7.6-94.7,34.4-113,95c-5.1,17-4.7,32.2-4,60c1,39,2.1,81.2,20,110
		c19.6,31.6,51.8,34.5,161,58c167.6,36.1,155.6,43,203,44c39.4,0.8,91.3-9.8,195-31c30.8-6.3,82.3-17.4,146-40
		c90-32,108-52.7,117-71c18.6-37.9,5.2-78.3,2-88c-4.8-14.4-18.8-45.7-75-82c-25.5-16.4-107-64.3-239-64c-92.1,0.2-91.8,23.6-161,13
		c-64.3-9.9-92.7-34.4-155-31C401,200.8,367.6,214.2,345.5,225.5z"/>
</g>
<g id="レイヤー_2">
	<path id="SVGID_x5F_1_x5F_" class="st1" d="M336.8,388.7l99.1,16.4l114.4,38.6l152.2,3.3l100.6-4.5l147-8.1"/>
	<text>	<textPath  xlink:href="#SVGID_x5F_1_x5F_" startOffset="26.6113%">
<tspan  style="font-family:'AmericanTypewriter'; font-size:122px; letter-spacing:22;">about</tspan>	</textPath>
</text>
</g>
</svg>
