<?xml version="1.0" encoding="utf-8"?>
<!-- Generator: Adobe Illustrator 22.1.0, SVG Export Plug-In . SVG Version: 6.00 Build 0)  -->
<svg version="1.1" xmlns="http://www.w3.org/2000/svg" xmlns:xlink="http://www.w3.org/1999/xlink" x="0px" y="0px"
	 viewBox="0 0 873.9 806.5" style="enable-background:new 0 0 873.9 806.5;" xml:space="preserve">
<style type="text/css">
	.st0{fill:#FFFFFF;stroke:#000000;stroke-width:3;stroke-miterlimit:10;}
</style>
<g id="レイヤー_1">
	<polygon class="st0" points="835.6,22.2 826.4,39.7 818.5,65.7 819.5,104.4 806.6,143.5 791.3,175.1 780.4,209.9 771,220.6 
		764,238.3 756.2,267.6 749.9,284.4 746.1,294.7 735.7,307.9 726.8,335.1 715.4,353.7 715.8,367.7 716.2,381.6 714.6,392.9 
		712.5,407.1 713,425.1 707,437.3 694.7,459.6 688.4,483.9 680,485.3 688.9,469.4 693.6,453.3 698.5,443.6 706,431.9 706.6,422.3 
		707.1,406.3 709.4,390.6 709.5,371.3 710.8,364.3 698.7,384.2 685.4,404.5 673.1,431.3 661.7,453.6 654.2,467.7 644,488.4 
		637,488.6 645.1,473.6 651.1,463.8 655.2,457.7 638.5,465.7 644,458 655.1,453.8 662.6,441.5 667.7,432.4 675.1,414.4 684.9,398.2 
		693.5,382.9 705.7,365.4 709.6,353.2 697,355.7 668.7,368.5 660.8,376.2 648,394 642.2,391.5 655.1,376.7 634.2,384.5 599.4,387.8 
		585.2,386.7 569.9,387.7 554.6,392.1 548.9,392.8 541.4,403.9 538,402.1 542,394.8 537.7,391.6 508.9,393.9 493.8,392.2 
		475.3,399.3 458.1,409.1 473.4,396.1 488.6,389.3 507.2,388.2 531.3,387.9 557.7,381.7 584.7,381 607.3,380.4 629.2,378.6 
		646.8,370.9 657.1,362.8 675.9,354.7 698.9,349.3 713.5,342.6 718.8,327.1 721.2,314.7 731.6,299.6 733.7,288.7 739.6,283.8 
		724.2,294.7 710.6,303.2 699.6,318.3 700.2,308.3 709.3,298.4 724.1,289.3 737.9,277.8 749.5,258.2 753.8,240 756.1,235.4 
		747.8,239.9 743.3,243.9 734,244.2 742,239.1 752.3,229.5 758.9,218.5 772.4,192.5 779.6,168.5 779.3,158.6 744.2,177 701.9,192.6 
		675.1,203 654.3,213.8 647,221.2 640.3,241 638.3,255.5 635.6,248 637.3,241.1 641,224.1 643.2,216.2 627.1,232.6 610.8,241.2 
		598.4,253.3 575.7,270.7 560.3,280.5 558.2,291.4 558.6,305.2 565.4,324 559.4,323.6 557.4,316.1 552.9,307.2 553,300 549.6,297 
		536.6,316.4 520.5,333.4 509.6,351.4 497.8,362.6 489.2,376.4 478.9,386.3 467.7,395.3 460.4,402.7 452.2,413.2 446.3,417.3 
		442.9,425.2 445.1,439.9 442.1,472.2 438.8,481 436.7,486.5 434.5,494.1 431.7,490.2 439.3,470.5 440.5,460.5 441.2,451.1 
		441.2,441.5 440.6,430.4 440.4,421 442,416.2 430,425.5 420,436.1 400.4,447.7 380,459.4 357.8,473 333.3,482.4 310.9,498.9 
		304.5,497.6 321.9,485.1 332.9,477.9 340.6,472.8 359.4,465.7 370.3,458.5 374.3,450.2 377.2,455.6 399.4,442.9 409.4,435.1 
		417.2,431.9 424.8,425.7 433.9,415.8 447.9,408.2 454.3,402.9 463.1,394.2 473.1,385.2 484.8,371.1 487,365 473.7,363.5 
		460.3,366.9 446.1,377.2 439.4,375.6 449.5,367.8 446.1,365.8 432,368.9 422.7,369.4 415.4,367.5 398.4,371.6 385.4,370.7 
		374.7,374.3 368.8,380.5 359.2,380.5 366.2,371.9 357.4,371.2 346.9,373 337.6,375.3 326,378.4 322.1,380.6 322.6,387.8 
		319.3,388.2 318.3,384.6 313.4,392.9 302.1,406.4 296.5,412.3 290,417.3 286.5,420.4 286.8,433.6 283.9,424.7 280.5,422.1 
		269.2,427.5 248.4,436.5 240,439.7 230.3,448.4 222.8,448.6 229.9,444.2 231,441.5 225.3,442.8 217.6,445.4 212,448.9 211.9,445.3 
		208.3,446 220.8,442 223.1,438.7 223.2,441.2 229.9,439.4 241.2,435.6 258.7,428.9 275,421.3 285.8,416.3 299.7,401.9 310.6,390.4 
		316.2,379.1 278.6,369.8 273,369.7 263.3,368.7 255.4,364.2 262.3,365.3 276,365.2 296.4,370.6 309.2,372.4 319.2,374.7 
		330.6,372.2 350.4,366.3 357.8,365.5 373.4,367.9 382.4,365.2 389.2,362.5 402.9,362.4 416.6,363 430.5,361.7 436.7,358.7 
		436.3,355.6 432.4,352 428.6,349 423.6,347.9 414.5,345.6 399.9,344.2 387.4,342.6 391.7,340.6 402,341 427,344.7 438.2,347.8 
		441.5,354.9 451.9,358 470.5,355.9 491.1,356.6 503.1,339.8 506.9,329.5 524.2,317.1 537.2,297 548.7,279.9 564.5,264.5 585,249 
		601.4,236.5 583.4,232.1 561,237.8 544,252.7 536.7,251.5 546.5,240.3 531.2,237.1 506.6,239.2 482,245 426.8,245.7 403.5,243.5 
		387.5,243.2 365.2,248.1 352.5,262.3 347.9,254.4 357.1,246.2 336.9,250.4 317.4,250.9 294.8,251.5 281.8,253.3 266.2,268.9 
		249.6,281.3 242,289.1 231.1,296.6 217.9,300.1 198.3,301.7 183.9,307.2 165.3,320.7 142.2,339.8 121.6,347.3 105.7,352.7 
		98.8,359.4 94.4,366.8 94.3,362.6 102.5,352.5 90.4,353.6 91.9,351 106.6,348.5 121.2,342.9 124.8,340.3 139.2,336.2 147.6,328.7 
		158.8,320.1 174,308.6 164.8,310.6 147.9,311.6 154.7,303.6 156.7,300.5 157.1,304.6 154.6,309.1 164.9,307.8 179.4,305.3 
		186.6,302 195.6,299.1 206,298.1 217,295.7 235,289.2 245.2,280.1 254.8,271.3 267,259.6 277.8,249.4 266.2,241.7 254.9,234.5 
		253.8,232.4 243.6,232.4 233.4,229.8 216,227.7 206.9,226.2 192.3,223.7 191.9,219 206.2,222.5 219.3,225 227.9,226.1 237.2,226.4 
		251.1,230.1 240.2,220.8 213.3,204.4 195.3,193.8 181.2,188.9 170.7,184.3 145.3,185.2 128.9,185.9 129.6,183.6 116.9,183.2 
		105.4,189.2 96.7,193.3 82.1,200.2 77.9,198 62.4,202.8 49.6,208.6 47.4,205.5 43,205.7 60.3,200.3 63.6,197.8 65,194.7 
		68.2,196.9 74.2,195.7 82.9,194.2 95.8,189.4 111.7,182.5 119.9,179.4 133.2,180.9 145.9,181.6 157.1,181.8 168,181.3 175.6,184.2 
		179.4,182 181.1,184.5 191.8,189.4 240.6,215.4 249.3,220.6 255.2,226.7 270.7,236.6 286,243.5 322.8,242.7 341.4,240.2 370.6,235 
		387.7,233.5 391.8,230.8 380.9,220.7 383.9,218.2 389.3,222.8 397.7,229 412.1,232.8 425.9,233.2 432.7,235.9 445.4,235.5 
		455,233.2 482.7,233 496.9,229.5 507,227.7 515,226.4 518,222.4 522.7,224.9 533.2,227 541.3,228.8 563,226.2 575.9,222.7 
		591.5,223.5 615.7,217.4 636.4,204.7 647.8,195 650.9,191.3 660.5,191 676.2,187 717.5,167.7 731.3,161.9 758.1,153.1 775.9,142 
		790.7,130.7 792.5,112.7 793.2,98.4 788.7,104.8 785.2,99.7 793.3,90.9 791.5,74.1 788.2,67.9 791.7,61.6 774.2,79.2 758.4,87.7 
		751.6,97.5 744.5,111.1 741.7,106 736.3,107.7 744.4,98.2 746.5,88.5 732.8,92 677.8,94.3 668.3,98.1 652.8,99.1 632.5,97.8 
		613.6,98.3 596,103.2 591.1,112.2 586.1,111.3 590.3,103.4 582,103.6 555.9,106.9 529.4,123.7 509.4,135.9 501.3,143.4 
		496.7,155.7 488.6,171.3 480.6,182.1 469.8,196.5 452.3,211 448.5,214.2 453.7,205.7 461.8,198.5 467.8,190.8 470.5,184.8 
		477.4,178.9 484.1,169.1 489,158 492.1,148.3 494.3,141.5 484.6,139.7 472.2,141.9 464.5,145.5 451.8,154.4 440.5,156.8 445,152.7 
		452.4,149.9 456.4,143.1 456.8,138.4 444.9,140.5 431.4,141.2 426.1,143.4 422.4,141.7 427,139.7 411.4,139.1 402.3,138.1 
		386.8,141.6 342.1,150.8 337.4,159.3 331,159.2 334.4,154.2 336.4,151 320.2,154.8 289.6,158.2 273.8,159.2 259.1,159.6 
		245.5,158.6 238.1,162.2 232.3,169.6 229.7,166.6 221.8,163.2 216.1,163.3 205.7,163.6 215.7,161 230.6,164.2 235.2,159.4 
		246.2,155 243.2,150.9 243.4,146.2 247.7,144.3 247.9,152.1 252.2,155.1 262.3,155.1 272,156.6 285.9,155.5 297.8,153.3 
		304.6,152.6 332.9,145.6 348.7,142.9 402.4,131.6 404.6,129.2 404.6,125.8 397.9,120 391.3,115.5 382.9,112.9 371.6,105.7 
		366,102.4 367,100.1 380.2,107 389.6,109.8 399.1,115.3 407.5,120.5 411.8,124.8 416.3,128.1 424.2,132.3 434.6,133.3 478.9,131 
		488.8,130.3 504.5,126.5 511.6,121.6 531,108.4 541.5,100.5 540.6,96.9 529.9,94.6 520.4,90.5 513.8,87 504.5,86 492.8,88.4 
		482.3,93.8 471.5,97 456.3,102.1 444.5,96.4 448.4,94.8 456,97.9 463,97 468.3,94.7 474,91.7 485.8,86.5 498.1,82.8 499.9,80.4 
		498.8,78.1 460.8,45.4 443.9,34.6 437,29.6 424.2,26.9 410.5,30.4 399.8,36.6 385.6,40.9 374.4,46.9 364.3,57.3 376,41.4 
		385.8,38.6 394.5,33.6 405,27.4 425.4,22.2 445.2,25.5 452.6,31.8 466.6,40.5 481,53.9 502.5,71.2 514.4,80 524.3,80.8 547.7,91.3 
		555,93.2 580.9,89.9 599.3,89.4 621.6,88 642.1,86.9 665.9,84.2 670.2,81.7 682.2,81.4 692.5,79.1 717.4,78.7 737.6,78.4 
		746.2,77.4 759.5,70.2 770.7,64.7 773.2,60 788.3,50.3 795.1,45.1 803.6,32.4 792.3,25.5 792.1,20.3 	"/>
	<polygon class="st0" points="778.4,214 772.5,232.8 769.4,259.8 777.3,297.7 771.6,338.5 762.2,372.4 757.7,408.5 750.4,420.7 
		746.6,439.4 744.2,469.6 741.1,487.3 739.2,498.1 731.3,512.9 727.4,541.3 719.5,561.6 722.4,575.3 725.3,589 725.7,600.3 
		726.2,614.6 729.9,632.3 726.2,645.4 718.1,669.6 716.2,694.6 708.2,697.5 714.2,680.2 715.9,663.6 718.9,653.1 724.2,640.3 
		723.1,630.7 720.7,614.9 720.2,599 716.8,580 716.9,572.9 708.5,594.7 699,617 691.8,645.5 684.5,669.5 679.7,684.7 673.3,707 
		666.5,708.4 671.8,692.2 676,681.5 678.9,674.7 663.9,685.5 668,677 678.1,670.9 683.2,657.5 686.7,647.5 690.7,628.6 697.4,610.8 
		703.2,594.3 712,574.9 713.7,562.2 701.7,566.9 676.2,584.5 669.8,593.6 660.4,613.4 654.3,611.9 664.3,595 645.1,606.4 611.5,616 
		597.3,617.4 582.4,621.2 568.2,628.1 562.7,629.9 557.3,642.1 553.7,641 556.3,633.1 551.5,630.7 523.5,638.1 508.4,639.2 
		491.5,649.5 476.3,662.2 489,646.6 502.7,637.3 520.9,632.8 544.5,628.2 569.3,617.4 595.8,611.9 617.9,607.2 639.2,601.5 
		655.1,590.8 663.8,581 680.8,569.7 702.5,560.3 715.6,551 718.1,534.8 718.2,522.2 725.8,505.5 725.9,494.4 730.8,488.5 717.6,502 
		705.8,512.8 697.6,529.6 696.4,519.7 703.6,508.3 716.5,496.7 728.1,482.9 735.9,461.6 736.9,442.9 738.3,438 731,443.8 
		727.4,448.6 718.2,450.5 725.2,444.1 733.6,432.8 738.1,420.8 746.7,392.9 749.5,368 747.4,358.3 716.3,382.6 677.4,405.6 
		652.9,420.6 634.3,434.9 628.5,443.5 625.4,464.2 626,478.8 622.1,471.9 622.5,464.8 623.1,447.4 623.9,439.3 611,458.3 
		596.4,469.6 586.5,483.7 567.2,505 553.8,517.3 553.7,528.4 556.6,542 566.6,559.3 560.6,559.9 557.3,552.9 551.3,544.9 
		550.1,537.8 546.3,535.5 536.9,556.9 524.1,576.5 516.6,596.2 507,609.3 501,624.4 492.6,636 483.2,646.9 477.4,655.5 471.2,667.3 
		466.1,672.3 464.2,680.7 469,694.8 471.8,727.1 470.1,736.4 469.1,742.1 468.3,750 464.8,746.7 468.8,725.9 468.2,715.9 
		467.2,706.6 465.5,697.1 462.9,686.2 461,677.1 461.7,672 451.5,683.4 443.6,695.5 426.5,710.5 408.4,725.7 389,743 366.6,756.6 
		347.5,776.9 341,776.7 355.9,761.3 365.4,752.2 372.1,745.9 389.3,735.5 398.7,726.5 401.2,717.6 405,722.4 424.6,706 433,696.5 
		440.1,691.9 446.5,684.4 453.7,673.1 466,663.1 471.5,656.8 478.6,646.6 486.8,636 495.7,620 496.8,613.6 483.5,614.5 470.9,620.3 
		458.8,633 451.9,632.6 460.4,623.1 456.7,621.7 443.4,627.3 434.4,629.5 426.9,628.9 410.8,636 397.9,637.4 388,642.9 383.3,650 
		373.8,651.7 379.2,642 370.4,642.9 360.4,646.5 351.7,650.5 340.8,655.6 337.4,658.4 339.2,665.5 336,666.4 334.4,663.1 331,672.1 
		322.3,687.5 317.8,694.2 312.3,700.3 309.4,704 312.2,717 307.6,708.7 303.9,706.7 293.7,714.1 274.8,726.6 267.2,731.3 
		259.2,741.6 251.8,743.2 258,737.6 258.7,734.7 253.3,737 246.1,741 241.2,745.4 240.5,741.9 237.1,743.2 248.7,737.1 250.4,733.3 
		250.9,735.8 257.2,732.9 267.6,727 283.7,717.3 298.3,706.9 308,700.1 319.1,683.5 327.8,670.2 331.3,658 292.6,655.7 287.1,656.5 
		277.4,657.3 268.8,654.3 275.8,654.1 289.3,651.6 310.3,653.2 323.2,652.8 333.4,653.1 344.2,648.6 362.6,639.4 369.8,637.2 
		385.6,636.8 393.9,632.5 400.1,628.7 413.6,626.1 427.2,624.2 440.7,620.5 446.2,616.4 445.2,613.5 440.8,610.6 436.5,608.3 
		431.4,608.1 422.1,607.5 407.4,608.7 394.8,609.4 398.7,606.7 408.9,605.2 434.1,604.4 445.8,605.4 450.3,611.8 461,613 479,607.6 
		499.3,604.6 508.1,586 510.1,575.1 524.8,559.8 534,537.7 542.3,518.8 555,500.9 572.5,481.9 586.4,466.8 567.8,465.6 546.8,475.2 
		532.8,493 525.4,493.1 533.1,480.3 517.4,479.9 493.5,486.4 470.4,496.4 416.3,507.1 392.9,509 377.2,511.6 356,520.4 346.1,536.6 
		340.2,529.7 347.8,520 328.6,527.7 309.5,531.7 287.4,536.3 274.9,540.5 262.4,558.6 248.3,573.8 242.2,582.7 232.8,592.1 
		220.5,597.9 201.4,603 188.2,611 172.4,627.6 153,650.5 134.2,661.6 119.4,669.8 113.9,677.6 110.8,685.6 110,681.6 116.3,670.2 
		104.6,673.4 105.6,670.6 119.6,665.5 133,657.4 136,654.1 149.5,647.5 156.4,638.7 165.9,628.2 178.8,614.1 170,617.8 153.6,621.8 
		158.9,612.7 160.3,609.2 161.4,613.2 159.8,618.1 169.7,614.9 183.5,609.9 190,605.4 198.3,601 208.3,598.1 218.8,593.8 
		235.4,584.2 243.7,573.4 251.6,563 261.4,549.3 270.3,537.3 257.5,531.8 245.1,526.8 243.6,524.9 233.6,526.7 223.2,526 
		205.6,527.1 196.3,527.1 181.5,527.3 180.3,522.8 195.1,523.7 208.4,523.8 217,523.3 226.3,521.9 240.6,523.2 228.2,515.9 
		198.8,504.6 179.2,497.3 164.4,495.1 153.3,492.4 128.4,497.9 112.5,501.5 112.8,499.1 100.2,500.9 89.9,508.9 82.1,514.5 
		68.9,523.9 64.4,522.5 50.1,530 38.5,538 35.8,535.4 31.5,536.3 47.5,527.9 50.3,524.9 51.2,521.6 54.7,523.2 60.4,521 68.7,517.9 
		80.5,510.9 94.9,501.2 102.5,496.7 115.8,495.8 128.4,494.2 139.5,492.4 150.1,489.9 158.1,491.4 161.5,488.6 163.5,490.8 
		175,493.7 227.6,510.5 237.1,514.1 244,519 261.1,526 277.3,530 313.4,522.7 331.3,516.8 359.1,506.5 375.6,502 379.2,498.6 
		366.6,490.6 369.2,487.7 375.2,491.2 384.7,495.8 399.5,497 413.1,494.9 420.3,496.3 432.7,493.7 441.7,489.7 469,484.5 
		482.3,478.5 491.9,475 499.6,472.2 501.8,467.8 506.9,469.4 517.6,469.6 525.8,469.9 546.8,463.5 558.8,457.7 574.3,455.7 
		597.1,445.4 615.1,429.1 624.6,417.6 626.9,413.4 636.3,411.4 651.1,404.6 688.2,378.2 700.8,370 725.6,356.6 741.2,342.5 
		753.7,328.7 752.3,310.7 750.4,296.5 747.1,303.6 742.7,299.2 749.1,289.1 744.3,272.9 740,267.4 742.3,260.6 728.3,281 
		714.2,292.2 709.3,303 704.7,317.8 701.1,313.2 696.1,315.9 702.3,305 702.6,295.2 689.8,301 636.1,313.1 627.5,318.6 612.3,322.3 
		592.1,324.7 573.6,328.6 557.2,336.5 554,346.2 548.9,346.2 551.7,337.7 543.5,339.4 518.4,347.4 495.3,368.6 477.9,384.2 
		471.3,393 468.9,406 463.7,422.7 457.8,434.9 449.7,450.9 435.1,468.3 431.9,472.1 435.5,462.9 442.2,454.3 446.8,445.7 
		448.3,439.2 454,432.2 458.9,421.4 461.8,409.6 463.1,399.5 464,392.5 454.2,392.4 442.3,396.7 435.4,401.6 424.5,412.7 
		413.8,417.1 417.5,412.3 424.3,408.2 427,400.8 426.6,396.1 415.2,400.3 402.1,403.3 397.2,406.5 393.3,405.5 397.5,402.7 
		382,404.9 372.9,405.5 358.3,411.7 316,428.8 312.9,438 306.5,439.1 309,433.5 310.4,430 295.1,436.7 265.6,445.5 250.3,449.3 
		235.8,452.3 222.3,453.8 215.6,458.7 211.3,467 208.1,464.5 199.7,462.5 194.2,463.7 184,465.8 193.4,461.5 208.6,462 212.3,456.5 
		222.3,450.1 218.7,446.6 218,442 221.9,439.3 223.5,446.9 228.2,449.1 238.2,447.3 248,447.1 261.5,443.5 272.8,439.2 279.3,437.3 
		306,425.4 321,419.8 371.8,399.1 373.6,396.3 372.9,393 365.3,388.5 358,385.3 349.3,384.2 336.8,379.1 330.8,376.9 331.3,374.4 
		345.5,378.9 355.3,380 365.6,383.7 374.9,387.3 379.8,390.8 384.8,393.2 393.4,395.9 403.8,395 447,384.9 456.6,382.3 471.4,375.8 
		477.5,369.7 494.2,353.2 503.1,343.7 501.5,340.3 490.6,339.9 480.6,337.5 473.5,335.3 464.1,336 453,340.4 443.7,347.7 
		433.6,352.7 419.6,360.4 406.9,357 410.4,354.6 418.5,356.4 425.2,354.2 430.1,351 435.1,347.1 445.8,339.8 457.3,333.9 
		458.6,331.3 457.1,329.2 413.8,303.8 395.3,296.3 387.6,292.6 374.5,292.2 361.7,298.1 352.3,306.1 339.1,312.9 329.1,320.8 
		321,332.9 329.7,315.1 338.9,310.5 346.5,304.2 355.7,296.1 374.8,287.4 394.9,287.1 403.4,292 418.7,298 435.2,308.6 459.5,321.8 
		472.8,328.3 482.6,327.3 507.5,333.5 515.1,334 539.9,326.1 558,322.3 579.7,317 599.6,312.3 622.5,305.3 626.4,302.1 638.1,299.7 
		647.8,295.5 672.2,290.7 692.1,286.8 700.3,284.2 712.1,274.9 722.2,267.4 723.8,262.3 736.9,250 742.7,243.8 748.8,229.8 
		736.4,225 735.3,219.9 	"/>
</g>
<g id="レイヤー_2">
</g>
<g id="レイヤー_3">
	<polygon class="st0" points="191.5,96.2 201.9,98.3 196.7,100.5 212.7,104.4 228.3,96.2 250.8,89.3 274.6,89.3 280.7,92 
		280.7,80.7 271.8,82.9 257.3,80.7 245.6,77.8 229.5,81 199.9,83.8 	"/>
	<polygon class="st0" points="181,168 190.7,163.7 187.7,168.5 203,162.4 211,146.7 225.3,128 244.8,114.3 251.4,113.1 244.8,103.8 
		238.8,110.7 225.7,117.4 214.4,121.7 203.2,133.6 180.6,153 	"/>
	<polygon class="st0" points="43.4,261.2 53.1,256.9 50.1,261.7 65.4,255.6 73.4,239.9 87.7,221.2 107.2,207.5 113.8,206.3 
		107.2,197 101.2,203.9 88.1,210.6 76.8,214.9 65.6,226.8 43,246.2 	"/>
	<polygon class="st0" points="100.8,277.7 108.7,270.7 107.3,276.1 120,265.6 122.8,248.2 130.7,226.1 144.9,207 150.8,203.8 
		141.7,197 138.1,205.4 127.7,215.8 118.3,223.4 111.3,238.2 95.8,263.6 	"/>
	<polygon class="st0" points="354.9,229.3 362.9,222.3 361.5,227.8 374.2,217.3 376.9,199.9 384.8,177.7 399.1,158.6 405,155.4 
		395.9,148.6 392.3,157.1 381.8,167.4 372.5,175 365.5,189.8 350,215.3 	"/>
	<polygon class="st0" points="332.5,316.2 342,311.5 339.2,316.4 354.2,309.6 361.4,293.5 374.9,274.2 393.6,259.5 400.1,257.9 
		393.1,249 387.4,256.2 374.6,263.5 363.6,268.3 353,280.8 331.4,301.3 	"/>
	<polygon class="st0" points="223.9,342.7 234.2,345.5 228.9,347.4 244.6,352.2 260.7,345 283.6,339.5 307.3,340.9 313.2,344.1 
		313.9,332.7 304.9,334.4 290.5,331.3 279,327.6 262.8,329.9 233,330.9 	"/>
	<polygon class="st0" points="321.8,415.5 332.3,416.6 327.4,419.3 343.7,421.5 358.4,411.6 380,402.4 403.7,399.9 410,402 
		408.8,390.8 400.2,393.9 385.5,393.2 373.6,391.5 357.9,396.4 328.8,402.3 	"/>
	<polygon class="st0" points="515.8,223.4 526.3,224.4 521.4,227.1 537.7,229.3 552.4,219.5 574,210.3 597.7,207.8 604,209.9 
		602.8,198.6 594.2,201.7 579.5,201.1 567.6,199.4 551.9,204.3 522.8,210.2 	"/>
	<polygon class="st0" points="493.5,446.2 504.1,447.3 499.1,450 515.5,452.2 530.1,442.3 551.8,433.1 575.4,430.6 581.8,432.7 
		580.6,421.5 571.9,424.5 557.3,423.9 545.3,422.2 529.7,427.1 500.5,433 	"/>
	<polygon class="st0" points="50.9,474.7 60.6,479.1 55,480.1 69.7,487.5 86.8,483 110.3,481.2 133.5,486.6 138.8,490.7 
		141.3,479.6 132.1,479.7 118.4,474.4 107.7,468.9 91.3,468.4 61.8,464.5 	"/>
	<polygon class="st0" points="311.6,595.3 301.5,592.1 306.8,590.5 291.3,585.1 275,591.7 251.9,596.5 228.2,594.2 222.4,590.8 
		221.3,602.1 230.4,600.8 244.7,604.4 256,608.4 272.3,606.7 302.1,606.8 	"/>
	<polygon class="st0" points="527.8,687.1 537.3,682.3 534.5,687.3 549.5,680.4 556.7,664.3 570.1,645 588.8,630.3 595.3,628.7 
		588.3,619.8 582.6,627 569.9,634.3 558.9,639.2 548.2,651.7 526.7,672.2 	"/>
	<polygon class="st0" points="440.4,182.2 449.9,177.5 447.2,182.4 462.2,175.5 469.3,159.4 482.7,140.1 501.4,125.4 507.9,123.8 
		500.9,114.9 495.3,122.1 482.5,129.4 471.5,134.3 460.9,146.8 439.3,167.3 	"/>
	<polygon class="st0" points="342.8,117.5 352.9,120.7 347.5,122.3 363.1,127.8 379.4,121.2 402.5,116.5 426.1,118.9 431.9,122.3 
		433.1,111 424,112.3 409.7,108.6 398.4,104.5 382.1,106.2 352.3,106 	"/>
	<polygon class="st0" points="383.2,60.9 392.1,66.6 386.5,66.8 400.1,76.2 417.6,74 441.1,75.6 463.3,84 468,88.8 472.1,78.2 
		463,77.1 450.1,69.9 440.3,62.9 424.1,60.3 395.4,52.3 	"/>
</g>
</svg>
