<?xml version="1.0" encoding="utf-8"?>
<!-- Generator: Adobe Illustrator 22.1.0, SVG Export Plug-In . SVG Version: 6.00 Build 0)  -->
<svg version="1.1" xmlns="http://www.w3.org/2000/svg" xmlns:xlink="http://www.w3.org/1999/xlink" x="0px" y="0px"
	 viewBox="0 0 970 579.1" style="enable-background:new 0 0 970 579.1;" xml:space="preserve">
<style type="text/css">
	.st0{fill:#FFFFFF;stroke:#000000;stroke-width:3;stroke-miterlimit:10;}
	.st1{display:none;}
</style>
<g id="レイヤー_1">
	<polygon class="st0" points="77.3,525.1 87,507.8 95.6,482 95.6,443.3 109.6,404.6 125.7,373.4 137.6,339 147.3,328.5 154.8,311 
		163.4,281.9 170.1,265.3 174.1,255.1 184.9,242.1 194.6,215.2 206.4,197 206.4,183 206.4,169 208.4,157.8 210.8,143.7 210.8,125.6 
		217.1,113.6 230,91.6 237,67.5 245.4,66.3 236.1,82 230.9,97.9 225.8,107.5 218,119 217.1,128.6 216.2,144.6 213.5,160.2 
		212.9,179.5 211.4,186.4 224,166.8 237.9,147 250.8,120.5 262.9,98.5 270.7,84.7 281.5,64.2 288.4,64.2 280,78.9 273.7,88.6 
		269.5,94.6 286.3,87.1 280.6,94.6 269.5,98.5 261.6,110.6 256.2,119.6 248.4,137.3 238.2,153.3 229.1,168.4 216.5,185.5 
		212.3,197.6 224.9,195.4 253.5,183.4 261.6,175.9 274.9,158.4 280.6,161.1 267.4,175.6 288.4,168.4 323.4,165.9 337.5,167.5 
		352.9,166.8 368.2,162.9 373.9,162.3 381.8,151.5 385.1,153.3 380.9,160.5 385.1,163.8 414,162.3 429,164.4 447.7,157.8 
		465.1,148.5 449.5,161.1 434.1,167.5 415.5,168.1 391.4,167.8 364.9,173.2 337.8,173.2 315.2,173.2 293.3,174.4 275.5,181.6 
		265,189.4 246,197 222.8,201.8 208.1,208.1 202.3,223.4 199.6,235.8 188.8,250.5 186.4,261.4 180.4,266.2 196,255.7 209.9,247.5 
		221.3,232.8 220.4,242.7 211.1,252.3 196,261.1 181.9,272.2 169.8,291.5 165,309.5 162.6,314.1 171,309.8 175.6,305.9 184.9,305.9 
		176.8,310.7 166.2,320.1 159.3,330.9 145.1,356.5 137.3,380.3 137.3,390.2 172.8,372.8 215.6,358.3 242.7,348.7 263.8,338.4 
		271.2,331.2 278.5,311.6 280.9,297.2 283.3,304.7 281.5,311.6 277.3,328.5 274.9,336.3 291.4,320.4 308,312.2 320.6,300.5 
		343.8,283.6 359.5,274.3 361.9,263.5 361.9,249.6 355.6,230.7 361.6,231.3 363.4,238.8 367.6,247.8 367.3,255.1 370.6,258.1 
		384.2,239.1 400.7,222.5 412.2,204.8 424.2,193.9 433.2,180.4 443.8,170.8 455.2,162 462.7,154.8 471.2,144.6 477.2,140.7 
		480.8,132.8 479,118.1 482.9,85.9 486.4,77.2 488.6,71.7 491,64.2 493.7,68.1 485.6,87.7 484.1,97.6 483.2,106.9 482.9,116.6 
		483.2,127.7 483.2,137 481.4,141.9 493.7,132.8 504,122.6 523.8,111.5 544.6,100.3 567.2,87.4 591.9,78.6 614.8,62.7 621.1,64.2 
		603.3,76.2 592.2,83.2 584.4,88 565.4,94.6 554.3,101.5 550,109.7 547.3,104.2 524.7,116.3 514.5,123.8 506.7,126.8 498.9,132.8 
		489.5,142.5 475.4,149.7 468.8,154.8 459.7,163.2 449.5,172 437.4,185.8 435,191.8 448.3,193.6 461.8,190.6 476.3,180.7 
		482.9,182.5 472.7,190 476,192.1 490.1,189.4 499.5,189.1 506.7,191.2 523.8,187.6 536.8,188.8 547.6,185.5 553.6,179.5 
		563.3,179.8 556.1,188.2 564.8,189.1 575.3,187.6 584.7,185.5 596.4,182.8 600.3,180.7 600,173.5 603.3,173.2 604.2,176.8 
		609.3,168.7 621.1,155.4 626.8,149.7 633.4,144.9 637,141.9 637,128.6 639.7,137.6 643.1,140.4 654.5,135.2 675.6,126.8 684,123.8 
		693.9,115.4 701.5,115.4 694.2,119.6 693,122.3 698.7,121.1 706.6,118.7 712.3,115.4 712.3,119 715.9,118.4 703.3,122 700.9,125.3 
		700.9,122.8 694.1,124.4 682.7,127.9 665,134.1 648.5,141.3 637.6,146 623.3,160 612.1,171.2 606.2,182.3 643.5,192.6 649.1,192.9 
		658.8,194.2 666.5,198.8 659.7,197.6 646,197.3 625.8,191.4 613,189.2 603.1,186.7 591.6,188.9 571.7,194.2 564.2,194.8 548.7,192 
		539.6,194.5 532.8,197 519.1,196.7 505.4,195.7 491.4,196.7 485.2,199.5 485.5,202.6 489.3,206.3 493,209.4 498,210.7 507,213.1 
		521.6,215 534,216.9 529.7,218.7 519.4,218.1 494.5,213.8 483.4,210.3 480.2,203.2 470,199.8 451.3,201.3 430.8,200.1 418.3,216.6 
		414.2,226.8 396.6,238.7 383.1,258.5 371.1,275.2 354.9,290.2 334,305.2 317.2,317.1 335.2,322.1 357.7,317 375.1,302.5 
		382.4,303.9 372.2,314.8 387.4,318.5 412.1,317 436.8,311.9 492,312.6 515.2,315.6 531.2,316.3 553.7,311.9 566.8,298.1 
		571.1,306.1 561.7,314.1 582,310.5 601.5,310.5 624.1,310.5 637.2,309 653.2,293.9 670.1,281.9 677.9,274.3 689,267.1 702.3,264 
		722,262.9 736.5,257.7 755.5,244.8 779.1,226.3 799.9,219.3 815.9,214.4 822.9,207.9 827.6,200.7 827.6,204.8 819.1,214.7 
		831.2,213.9 829.7,216.5 814.9,218.6 800.1,223.7 796.5,226.3 781.9,230 773.4,237.2 762,245.5 746.4,256.7 755.7,254.9 
		772.6,254.4 765.6,262.2 763.5,265.3 763.3,261.1 765.9,256.7 755.5,257.7 740.9,259.8 733.7,262.9 724.6,265.5 714.2,266.3 
		703.1,268.4 684.9,274.3 674.5,283.2 664.7,291.7 652.2,303.2 641,313 652.5,321.1 663.6,328.5 664.7,330.7 674.8,330.9 
		684.9,333.8 702.3,336.4 711.4,338.2 725.9,341 726.2,345.7 711.9,341.8 698.9,339 690.3,337.7 681,337.1 667.2,333 677.9,342.6 
		704.4,359.7 722,370.9 736,376.1 746.4,381 771.8,380.7 788.2,380.5 787.4,382.8 800.1,383.6 811.8,377.9 820.6,374 835.4,367.5 
		839.6,369.8 855.1,365.4 868.1,360 870.2,363.1 874.6,363.1 857.2,368 853.8,370.4 852.3,373.5 849.2,371.1 843.2,372.2 
		834.4,373.5 821.4,377.9 805.3,384.4 797,387.2 783.8,385.4 771,384.4 759.9,383.9 749,384.1 741.5,381 737.6,383.1 736,380.5 
		725.4,375.3 677.4,348 668.8,342.6 663.1,336.4 647.8,326 632.7,318.7 595.9,318.5 577.2,320.5 547.9,325 530.8,326 526.6,328.5 
		537.2,339 534.1,341.3 528.9,336.6 520.6,330.1 506.4,326 492.6,325.2 485.9,322.4 473.1,322.4 463.5,324.4 435.8,323.9 421.5,327 
		411.4,328.5 403.3,329.6 400.2,333.5 395.6,330.9 385.2,328.5 377.1,326.5 355.3,328.5 342.4,331.7 326.8,330.4 302.4,335.9 
		281.4,348 269.7,357.4 266.6,361 257,361 241.2,364.7 199.4,382.8 185.4,388.3 158.4,396.3 140.2,407 125.2,417.9 122.8,435.8 
		121.8,450 126.5,443.8 129.8,449 121.5,457.6 122.8,474.4 125.9,480.7 122.3,486.9 140.2,469.8 156.3,461.7 163.3,452.1 
		170.8,438.6 173.4,443.8 178.9,442.2 170.6,451.6 168.2,461.2 182,458.1 237,457.3 246.6,453.7 262.2,453.1 282.4,455 301.4,455 
		319,450.5 324.2,441.7 329.1,442.8 324.7,450.5 333,450.5 359.2,448 386.2,431.9 406.5,420.2 414.8,412.9 419.7,400.7 428.2,385.4 
		436.6,374.8 447.7,360.8 465.6,346.7 469.5,343.6 464.1,351.9 455.8,358.9 449.5,366.5 446.7,372.4 439.7,378.1 432.7,387.8 
		427.5,398.6 424.1,408.3 421.8,415 431.4,417.1 443.8,415.3 451.6,411.9 464.6,403.3 476,401.2 471.3,405.1 463.8,407.7 
		459.6,414.5 459.1,419.1 471.1,417.3 484.6,417.1 490,415 493.6,416.8 489,418.6 504.5,419.7 513.6,421 529.2,417.9 574.1,409.8 
		579,401.5 585.5,401.8 581.9,406.7 579.8,409.8 596.1,406.4 626.8,403.8 642.6,403.3 657.4,403.3 670.9,404.6 678.4,401.2 
		684.4,394 687,397.1 694.8,400.7 700.5,400.7 710.8,400.7 700.7,403.1 685.9,399.4 681.3,404.1 670.1,408.3 673,412.4 672.7,417.1 
		668.3,418.9 668.3,411.1 664.1,408 654,407.7 644.4,405.9 630.4,406.7 618.5,408.5 611.7,409 583.2,415.3 567.3,417.6 513.4,427.5 
		511,429.8 511,433.2 517.5,439.1 524,443.8 532.3,446.7 543.5,454.2 548.9,457.6 547.9,459.9 534.9,452.6 525.6,449.5 516.2,443.8 
		507.9,438.4 503.8,433.9 499.4,430.6 491.6,426.2 481.2,424.9 436.8,425.9 427,426.4 411.1,429.8 403.9,434.5 384.1,447.2 
		373.5,454.7 374.3,458.3 384.9,460.9 394.3,465.3 400.7,469 410.1,470.3 421.8,468.2 432.4,463 443.3,460.2 458.6,455.5 
		470.3,461.4 466.4,463 458.9,459.6 451.9,460.4 446.4,462.5 440.7,465.3 428.8,470.3 416.3,473.6 414.5,476 415.5,478.3 452.6,512 
		469.3,523.2 476,528.4 488.7,531.5 502.5,528.4 513.4,522.4 527.6,518.5 539.1,512.8 549.4,502.7 537.2,518.3 527.4,520.9 
		518.6,525.5 507.9,531.5 487.4,536.2 467.7,532.3 460.4,525.8 446.7,516.7 432.7,503 411.6,485.1 400,476 390.1,474.9 367,463.8 
		359.7,461.7 333.8,464.3 315.4,464.3 293.1,465.1 272.6,465.6 248.7,467.7 244.3,470 232.3,470 221.9,472.1 197,471.8 176.8,471.6 
		168.2,472.3 154.7,479.1 143.3,484.3 140.7,489 125.4,498.3 118.4,503.2 109.6,515.7 120.7,522.9 120.7,528.1 	"/>
</g>
<g id="レイヤー_2" class="st1">
</g>
</svg>
