<?xml version="1.0" encoding="utf-8"?>
<!-- Generator: Adobe Illustrator 22.1.0, SVG Export Plug-In . SVG Version: 6.00 Build 0)  -->
<svg version="1.1" xmlns="http://www.w3.org/2000/svg" xmlns:xlink="http://www.w3.org/1999/xlink" x="0px" y="0px"
	 viewBox="0 0 1366 768" style="enable-background:new 0 0 1366 768;" xml:space="preserve">
<style type="text/css">
	.st0{fill:#FFFFFF;stroke:#000000;stroke-width:3;stroke-miterlimit:10;}
	.st1{fill:none;}
</style>
<g id="レイヤー_1">
	<path class="st0" d="M253.5,283.5c19.9-24.3,66-73.3,141-94c15.2-4.2,125.6-34.6,182,21c24.3,24,14.7,40.4,37,58
		c37.5,29.6,92.4,5.3,198-22c110.2-28.5,165.2-42.7,221-35c22.2,3.1,135,18.6,178,103c45.1,88.6-4.8,217-86,272
		c-18.8,12.7-57.1,33.5-348-4c-147.4-19-216.7-34.6-285-56c-162.8-51.1-200.7-98.3-218-132C252.3,353.3,251.3,311.5,253.5,283.5z"/>
	<path id="SVGID_x5F_1_x5F_" class="st1" d="M391.5,373.5l142,59l175,59l151,21l145-25l56-26"/>
	<text>	<textPath  xlink:href="#SVGID_x5F_1_x5F_" startOffset="26.333%">
	</textPath>
</text>
</g>
<g id="レイヤー_2">
	<path id="SVGID_x5F_2_x5F_" class="st1" d="M316,290l83,97l148,56l291,40l75,13l147-22"/>
	<text>	<textPath  xlink:href="#SVGID_x5F_2_x5F_" startOffset="30.5176%">
<tspan  style="font-family:'AmericanTypewriter'; font-size:100px; letter-spacing:17;">contact</tspan>	</textPath>
</text>
</g>
</svg>
