<?xml version="1.0" encoding="utf-8"?>
<!-- Generator: Adobe Illustrator 22.1.0, SVG Export Plug-In . SVG Version: 6.00 Build 0)  -->
<svg version="1.1" xmlns="http://www.w3.org/2000/svg" xmlns:xlink="http://www.w3.org/1999/xlink" x="0px" y="0px"
	 viewBox="0 0 1366 768" style="enable-background:new 0 0 1366 768;" xml:space="preserve">
<style type="text/css">
	.st0{fill:#FFFFFF;stroke:#000000;stroke-width:5;stroke-miterlimit:10;}
	.st1{fill:none;}
</style>
<g id="レイヤー_1">
	<path class="st0" d="M296.5,221.5c43.7-16.7,107.8-33.2,181-21c38.5,6.4,36.9,13.7,79,22c102.8,20.2,133.4-18.9,222,2
		c23.7,5.6,66.3,16.2,104,52c36.8,34.9,49.1,75,59,107c15.5,50.1,28.6,134.3,2,147c-18,8.6-32.3-25.9-72-30
		c-51.6-5.4-75.1,47.8-147,82c-3,1.4-68.8,31.9-144,25c-101.2-9.2-107-75.7-216-104c-110-28.6-170.2,22-206-21
		c-30.8-37-19.5-114.1,16-152c15.5-16.5,27.1-16.5,58-41C263.5,264.9,284.1,239.1,296.5,221.5z"/>
</g>
<g id="レイヤー_2">
	<path id="SVGID_x5F_1_x5F_" class="st1" d="M174.5,390.5l53-8l119,4l104,37l59,44h42l108-42l75-43h33"/>
	<text>	<textPath  xlink:href="#SVGID_x5F_1_x5F_" startOffset="41.1987%">
<tspan  style="font-family:'AmericanTypewriter'; font-size:103px; letter-spacing:5;">login</tspan>	</textPath>
</text>
</g>
</svg>
