<?xml version="1.0" encoding="utf-8"?>
<!-- Generator: Adobe Illustrator 22.1.0, SVG Export Plug-In . SVG Version: 6.00 Build 0)  -->
<svg version="1.1" xmlns="http://www.w3.org/2000/svg" xmlns:xlink="http://www.w3.org/1999/xlink" x="0px" y="0px"
	 viewBox="0 0 1366 768" style="enable-background:new 0 0 1366 768;" xml:space="preserve">
<style type="text/css">
	.st0{fill:#FFFFFF;stroke:#000000;stroke-width:3;stroke-miterlimit:10;}
	.st1{fill:none;}
</style>
<g id="レイヤー_1">
	<path class="st0" d="M293.5,278.5c18.3-25.2,47.8-59.4,92-88c54.6-35.3,114.6-50.9,336-46c282.2,6.3,318.2,34.6,331,62
		c18.6,39.6-18.4,62.4,2,116c29.1,76.4,123.2,79.5,129,142c2.5,27-13,49.3-26,68c-30.3,43.6-75.9,62.5-110,73
		c-108.5,33.5-181.4,6.9-366,1c-145.3-4.6-155.2,10.1-226-9c-99.7-26.9-165-78.9-214-118c-66.1-52.7-112.8-89.9-105-128
		C144.7,311.8,209.7,283.2,293.5,278.5z"/>
</g>
<g id="レイヤー_2">
	<path id="SVGID_x5F_1_x5F_" class="st1" d="M254,337l132,29l178,35l137-8l162,39l124,8"/>
	<text>	<textPath  xlink:href="#SVGID_x5F_1_x5F_" startOffset="36.2939%">
<tspan  style="font-family:'AmericanTypewriter'; font-size:100px;">My page</tspan>	</textPath>
</text>
</g>
</svg>
